<?xml version="1.0" encoding="UTF-8" standalone="no"?>
<!DOCTYPE svg PUBLIC "-//W3C//DTD SVG 1.1//EN"
 "http://www.w3.org/Graphics/SVG/1.1/DTD/svg11.dtd">
<!-- Generated by graphviz version 10.0.1 (0)
 -->
<!-- Pages: 1 -->
<svg width="2225pt" height="1693pt"
 viewBox="0.00 0.00 2225.08 1692.66" xmlns="http://www.w3.org/2000/svg" xmlns:xlink="http://www.w3.org/1999/xlink">
<g id="graph0" class="graph" transform="scale(1 1) rotate(0) translate(4 1688.66)">
<polygon fill="white" stroke="none" points="-4,4 -4,-1688.66 2221.08,-1688.66 2221.08,4 -4,4"/>
<!-- 0 -->
<g id="node1" class="node">
<title>0</title>
<ellipse fill="none" stroke="black" cx="1852.51" cy="-958.5" rx="184.31" ry="18"/>
<text text-anchor="middle" x="1852.51" y="-953.82" font-family="Times,serif" font-size="14.00">soragoto &lt;soragoto@soragoto.io&gt;</text>
</g>
<!-- 19 -->
<g id="node20" class="node">
<title>19</title>
<ellipse fill="none" stroke="black" cx="1041.18" cy="-841.99" rx="179.05" ry="18"/>
<text text-anchor="middle" x="1041.18" y="-837.31" font-family="Times,serif" font-size="14.00">Cryolitia &lt;Cryolitia@gmail.com&gt;</text>
</g>
<!-- 0&#45;&gt;19 -->
<g id="edge62" class="edge">
<title>0&#45;&gt;19</title>
<path fill="none" stroke="black" d="M1768.59,-942.08C1629.08,-919.11 1348.11,-878.46 1179.12,-856.53"/>
<polygon fill="black" stroke="black" points="1179.77,-853.09 1169.4,-855.27 1178.87,-860.03 1179.77,-853.09"/>
<text text-anchor="middle" x="1447.61" y="-903.25" font-family="Times,serif" font-size="14.00">Default</text>
</g>
<!-- 1 -->
<g id="node2" class="node">
<title>1</title>
<ellipse fill="none" stroke="black" cx="1798.12" cy="-1182.03" rx="215.35" ry="18"/>
<text text-anchor="middle" x="1798.12" y="-1177.35" font-family="Times,serif" font-size="14.00">Jiaxun Yang &lt;jiaxun.yang@flygoat.com&gt;</text>
</g>
<!-- 3 -->
<g id="node4" class="node">
<title>3</title>
<ellipse fill="none" stroke="black" cx="1536.31" cy="-1527.96" rx="385.81" ry="18"/>
<text text-anchor="middle" x="1536.31" y="-1523.29" font-family="Times,serif" font-size="14.00">Tianyu Chen (a.k.a billchenchina ctyzxx) &lt;billchenchina2001@gmail.com&gt;</text>
</g>
<!-- 1&#45;&gt;3 -->
<g id="edge12" class="edge">
<title>1&#45;&gt;3</title>
<path fill="none" stroke="black" d="M1780.22,-1200.09C1731.69,-1256.96 1598.94,-1432.17 1552.49,-1500.41"/>
<polygon fill="black" stroke="black" points="1549.78,-1498.17 1547.12,-1508.42 1555.59,-1502.06 1549.78,-1498.17"/>
<text text-anchor="middle" x="1642.35" y="-1336.95" font-family="Times,serif" font-size="14.00">Casual</text>
</g>
<!-- 8 -->
<g id="node9" class="node">
<title>8</title>
<ellipse fill="none" stroke="black" cx="538.98" cy="-1527.35" rx="195.36" ry="18"/>
<text text-anchor="middle" x="538.98" y="-1522.68" font-family="Times,serif" font-size="14.00">Icenowy Zheng &lt;uwu@icenowy.me&gt;</text>
</g>
<!-- 1&#45;&gt;8 -->
<g id="edge20" class="edge">
<title>1&#45;&gt;8</title>
<path fill="none" stroke="black" d="M1722.22,-1199.3C1493.86,-1257.25 815.84,-1443.27 603.38,-1506.36"/>
<polygon fill="black" stroke="black" points="602.46,-1502.98 593.88,-1509.2 604.46,-1509.69 602.46,-1502.98"/>
<text text-anchor="middle" x="1136.55" y="-1356.78" font-family="Times,serif" font-size="14.00">Careful</text>
</g>
<!-- 9 -->
<g id="node10" class="node">
<title>9</title>
<ellipse fill="none" stroke="black" cx="385.34" cy="-1378.01" rx="247.45" ry="18"/>
<text text-anchor="middle" x="385.34" y="-1373.34" font-family="Times,serif" font-size="14.00">Coelacanthus &lt;CoelacanthusHex@gmail.com&gt;</text>
</g>
<!-- 1&#45;&gt;9 -->
<g id="edge27" class="edge">
<title>1&#45;&gt;9</title>
<path fill="none" stroke="black" d="M1663.68,-1196.48C1384.44,-1231.61 746.53,-1320.22 492.55,-1359.31"/>
<polygon fill="black" stroke="black" points="492.33,-1355.8 482.98,-1360.79 493.4,-1362.72 492.33,-1355.8"/>
<text text-anchor="middle" x="1054.12" y="-1281.84" font-family="Times,serif" font-size="14.00">Casual</text>
</g>
<!-- 12 -->
<g id="node13" class="node">
<title>12</title>
<ellipse fill="none" stroke="black" cx="1535.2" cy="-156.07" rx="227.45" ry="18"/>
<text text-anchor="middle" x="1535.2" y="-151.39" font-family="Times,serif" font-size="14.00">Misaka13514 &lt;Misaka13514@gmail.com&gt;</text>
</g>
<!-- 1&#45;&gt;12 -->
<g id="edge39" class="edge">
<title>1&#45;&gt;12</title>
<path fill="none" stroke="black" d="M1795.44,-1163.74C1770.4,-1040.95 1590.2,-337.07 1545.16,-185.02"/>
<polygon fill="black" stroke="black" points="1548.6,-184.29 1542.36,-175.73 1541.9,-186.31 1548.6,-184.29"/>
<text text-anchor="middle" x="1644.05" y="-678.33" font-family="Times,serif" font-size="14.00">Default</text>
</g>
<!-- 14 -->
<g id="node15" class="node">
<title>14</title>
<ellipse fill="none" stroke="black" cx="232.19" cy="-725.53" rx="175.37" ry="18"/>
<text text-anchor="middle" x="232.19" y="-720.86" font-family="Times,serif" font-size="14.00">Estela ad Astra &lt;i@estela.moe&gt;</text>
</g>
<!-- 1&#45;&gt;14 -->
<g id="edge44" class="edge">
<title>1&#45;&gt;14</title>
<path fill="none" stroke="black" d="M1746.31,-1164.17C1516.72,-1091.73 590.24,-821.46 311.75,-745.42"/>
<polygon fill="black" stroke="black" points="312.96,-742.13 302.39,-742.88 311.12,-748.88 312.96,-742.13"/>
<text text-anchor="middle" x="1002.78" y="-958.75" font-family="Times,serif" font-size="14.00">Careful</text>
</g>
<!-- 17 -->
<g id="node18" class="node">
<title>17</title>
<ellipse fill="none" stroke="black" cx="549.53" cy="-156.07" rx="168" ry="18"/>
<text text-anchor="middle" x="549.53" y="-151.39" font-family="Times,serif" font-size="14.00">Xinhui Yang &lt;cyan@cyano.uk&gt;</text>
</g>
<!-- 1&#45;&gt;17 -->
<g id="edge49" class="edge">
<title>1&#45;&gt;17</title>
<path fill="none" stroke="black" d="M1778.69,-1163.61C1637.39,-1039.34 768.5,-325.17 583.95,-181.29"/>
<polygon fill="black" stroke="black" points="586.19,-178.6 576.14,-175.23 581.9,-184.13 586.19,-178.6"/>
<text text-anchor="middle" x="1155.07" y="-676.4" font-family="Times,serif" font-size="14.00">Careful</text>
</g>
<!-- 1&#45;&gt;19 -->
<g id="edge54" class="edge">
<title>1&#45;&gt;19</title>
<path fill="none" stroke="black" d="M1764.87,-1163.77C1647.25,-1105.78 1249.99,-927.05 1099.56,-864.08"/>
<polygon fill="black" stroke="black" points="1101.13,-860.94 1090.56,-860.33 1098.44,-867.4 1101.13,-860.94"/>
<text text-anchor="middle" x="1405.96" y="-1017.87" font-family="Times,serif" font-size="14.00">Default</text>
</g>
<!-- 2 -->
<g id="node3" class="node">
<title>2</title>
<ellipse fill="none" stroke="black" cx="1694.49" cy="-1378.01" rx="230.61" ry="18"/>
<text text-anchor="middle" x="1694.49" y="-1373.34" font-family="Times,serif" font-size="14.00">Oct&#45;autumn &lt;octautumn2002@gmail.com&gt;</text>
</g>
<!-- 18 -->
<g id="node19" class="node">
<title>18</title>
<ellipse fill="none" stroke="black" cx="1798.12" cy="-502" rx="418.96" ry="18"/>
<text text-anchor="middle" x="1798.12" y="-497.33" font-family="Times,serif" font-size="14.00">Endless Paradox (Endless Paradox&#39;s new key) &lt;endlessparadox250@gmail.com&gt;</text>
</g>
<!-- 2&#45;&gt;18 -->
<g id="edge52" class="edge">
<title>2&#45;&gt;18</title>
<path fill="none" stroke="black" d="M1696.65,-1359.72C1709.74,-1249.05 1778.32,-669.33 1794.63,-531.45"/>
<polygon fill="black" stroke="black" points="1798.09,-532.04 1795.79,-521.7 1791.14,-531.22 1798.09,-532.04"/>
<text text-anchor="middle" x="1719.39" y="-932.28" font-family="Times,serif" font-size="14.00">Default</text>
</g>
<!-- 2&#45;&gt;19 -->
<g id="edge59" class="edge">
<title>2&#45;&gt;19</title>
<path fill="none" stroke="black" d="M1676.18,-1359.72C1586.86,-1279.45 1196.9,-959.21 1076.61,-866.92"/>
<polygon fill="black" stroke="black" points="1079.04,-864.38 1068.97,-861.1 1074.8,-869.95 1079.04,-864.38"/>
<text text-anchor="middle" x="1350.14" y="-1117.27" font-family="Times,serif" font-size="14.00">Default</text>
</g>
<!-- 3&#45;&gt;1 -->
<g id="edge6" class="edge">
<title>3&#45;&gt;1</title>
<path fill="none" stroke="black" d="M1554.21,-1509.91C1602.74,-1453.04 1735.49,-1277.83 1781.95,-1209.58"/>
<polygon fill="black" stroke="black" points="1784.65,-1211.82 1787.31,-1201.57 1778.84,-1207.93 1784.65,-1211.82"/>
<text text-anchor="middle" x="1692.08" y="-1346.44" font-family="Times,serif" font-size="14.00">Casual</text>
</g>
<!-- 3&#45;&gt;8 -->
<g id="edge23" class="edge">
<title>3&#45;&gt;8</title>
<path fill="none" stroke="black" d="M1176.61,-1521.23C1028.72,-1520.62 863.1,-1520.85 737.73,-1521.96"/>
<polygon fill="black" stroke="black" points="737.97,-1518.45 728,-1522.04 738.04,-1525.45 737.97,-1518.45"/>
<text text-anchor="middle" x="930.92" y="-1508.29" font-family="Times,serif" font-size="14.00">Careful</text>
</g>
<!-- 3&#45;&gt;9 -->
<g id="edge30" class="edge">
<title>3&#45;&gt;9</title>
<path fill="none" stroke="black" d="M1431.39,-1510.16C1229.42,-1480.55 785.41,-1422.46 545.96,-1394.05"/>
<polygon fill="black" stroke="black" points="546.55,-1390.6 536.21,-1392.9 545.73,-1397.55 546.55,-1390.6"/>
<text text-anchor="middle" x="962.43" y="-1456.06" font-family="Times,serif" font-size="14.00">Careful</text>
</g>
<!-- 3&#45;&gt;19 -->
<g id="edge57" class="edge">
<title>3&#45;&gt;19</title>
<path fill="none" stroke="black" d="M1525.93,-1509.66C1464.67,-1415 1152.08,-981.57 1064.14,-868.82"/>
<polygon fill="black" stroke="black" points="1067.14,-866.97 1058.2,-861.28 1061.64,-871.3 1067.14,-866.97"/>
<text text-anchor="middle" x="1268.79" y="-1193.19" font-family="Times,serif" font-size="14.00">Default</text>
</g>
<!-- 4 -->
<g id="node5" class="node">
<title>4</title>
<ellipse fill="none" stroke="black" cx="1348.17" cy="-62" rx="149.59" ry="18"/>
<text text-anchor="middle" x="1348.17" y="-57.33" font-family="Times,serif" font-size="14.00">Ziyao &lt;ziyao@disroot.org&gt;</text>
</g>
<!-- 4&#45;&gt;19 -->
<g id="edge53" class="edge">
<title>4&#45;&gt;19</title>
<path fill="none" stroke="black" d="M1341.03,-80.14C1300.79,-182.38 1102.26,-686.81 1052.5,-813.22"/>
<polygon fill="black" stroke="black" points="1049.37,-811.61 1048.97,-822.2 1055.89,-814.18 1049.37,-811.61"/>
<text text-anchor="middle" x="1170.52" y="-450.63" font-family="Times,serif" font-size="14.00">Default</text>
</g>
<!-- 5 -->
<g id="node6" class="node">
<title>5</title>
<ellipse fill="none" stroke="black" cx="1350.73" cy="-1622.63" rx="151.17" ry="18"/>
<text text-anchor="middle" x="1350.73" y="-1617.95" font-family="Times,serif" font-size="14.00">Not Neko &lt;neko@qwq.icu&gt;</text>
</g>
<!-- 5&#45;&gt;19 -->
<g id="edge63" class="edge">
<title>5&#45;&gt;19</title>
<path fill="none" stroke="black" d="M1345.86,-1604.42C1311.53,-1501.91 1111.57,-997.08 1055.57,-870.7"/>
<polygon fill="black" stroke="black" points="1058.82,-869.38 1051.53,-861.69 1052.43,-872.25 1058.82,-869.38"/>
<text text-anchor="middle" x="1174.47" y="-1241.51" font-family="Times,serif" font-size="14.00">Default</text>
</g>
<!-- 6 -->
<g id="node7" class="node">
<title>6</title>
<ellipse fill="none" stroke="black" cx="1044.63" cy="-1666.66" rx="199.04" ry="18"/>
<text text-anchor="middle" x="1044.63" y="-1661.99" font-family="Times,serif" font-size="14.00">zhangz &lt;zhangzprivate@gmail.com&gt;</text>
</g>
<!-- 6&#45;&gt;19 -->
<g id="edge72" class="edge">
<title>6&#45;&gt;19</title>
<path fill="none" stroke="black" d="M1046.74,-1648.27C1052.19,-1541.78 1050.12,-1004.28 1044.03,-871.62"/>
<polygon fill="black" stroke="black" points="1047.54,-871.72 1043.52,-861.91 1040.55,-872.08 1047.54,-871.72"/>
<text text-anchor="middle" x="1019.13" y="-1263.9" font-family="Times,serif" font-size="14.00">Default</text>
</g>
<!-- 7 -->
<g id="node8" class="node">
<title>7</title>
<ellipse fill="none" stroke="black" cx="721.68" cy="-1620.12" rx="160.34" ry="20.51"/>
<text text-anchor="middle" x="721.68" y="-1617.32" font-family="Times,serif" font-size="14.00">御坂云见 &lt;447f@misaka.org&gt;</text>
</g>
<!-- 7&#45;&gt;19 -->
<g id="edge61" class="edge">
<title>7&#45;&gt;19</title>
<path fill="none" stroke="black" d="M732.8,-1599.42C783.1,-1491.84 986.37,-997.03 1032.15,-871.16"/>
<polygon fill="black" stroke="black" points="1035.39,-872.5 1035.46,-861.9 1028.8,-870.14 1035.39,-872.5"/>
<text text-anchor="middle" x="856.23" y="-1239.24" font-family="Times,serif" font-size="14.00">Default</text>
</g>
<!-- 8&#45;&gt;1 -->
<g id="edge4" class="edge">
<title>8&#45;&gt;1</title>
<path fill="none" stroke="black" d="M613.94,-1510.32C841.2,-1452.69 1519.89,-1266.49 1733.21,-1203.17"/>
<polygon fill="black" stroke="black" points="1734.17,-1206.54 1742.75,-1200.32 1732.17,-1199.83 1734.17,-1206.54"/>
<text text-anchor="middle" x="1199.82" y="-1360.69" font-family="Times,serif" font-size="14.00">Default</text>
</g>
<!-- 8&#45;&gt;3 -->
<g id="edge14" class="edge">
<title>8&#45;&gt;3</title>
<path fill="none" stroke="black" d="M725.69,-1532.87C848.37,-1534.18 1013.15,-1534.67 1162.11,-1534.29"/>
<polygon fill="black" stroke="black" points="1161.76,-1537.8 1171.75,-1534.27 1161.74,-1530.8 1161.76,-1537.8"/>
<text text-anchor="middle" x="917.65" y="-1537.53" font-family="Times,serif" font-size="14.00">Default</text>
</g>
<!-- 8&#45;&gt;9 -->
<g id="edge28" class="edge">
<title>8&#45;&gt;9</title>
<path fill="none" stroke="black" d="M526.38,-1509.15C503.17,-1482.65 453.37,-1433.68 419.56,-1403.6"/>
<polygon fill="black" stroke="black" points="422.29,-1401.34 412.47,-1397.38 417.68,-1406.6 422.29,-1401.34"/>
<text text-anchor="middle" x="446.72" y="-1460.32" font-family="Times,serif" font-size="14.00">Default</text>
</g>
<!-- 8&#45;&gt;14 -->
<g id="edge42" class="edge">
<title>8&#45;&gt;14</title>
<path fill="none" stroke="black" d="M534.31,-1509.09C500.62,-1404.5 300.92,-882.02 245.99,-753.91"/>
<polygon fill="black" stroke="black" points="249.37,-752.9 242.17,-745.12 242.95,-755.69 249.37,-752.9"/>
<text text-anchor="middle" x="363.9" y="-1135.45" font-family="Times,serif" font-size="14.00">Default</text>
</g>
<!-- 8&#45;&gt;19 -->
<g id="edge55" class="edge">
<title>8&#45;&gt;19</title>
<path fill="none" stroke="black" d="M555.46,-1509.04C631.55,-1414.67 947.31,-983.93 1024.28,-869.78"/>
<polygon fill="black" stroke="black" points="1027.11,-871.85 1029.75,-861.59 1021.28,-867.97 1027.11,-871.85"/>
<text text-anchor="middle" x="763.62" y="-1193.36" font-family="Times,serif" font-size="14.00">Default</text>
</g>
<!-- 9&#45;&gt;1 -->
<g id="edge8" class="edge">
<title>9&#45;&gt;1</title>
<path fill="none" stroke="black" d="M525.9,-1362.79C809.04,-1327.05 1442.37,-1239.03 1693.05,-1200.4"/>
<polygon fill="black" stroke="black" points="1693.5,-1203.88 1702.84,-1198.89 1692.43,-1196.96 1693.5,-1203.88"/>
<text text-anchor="middle" x="1133.48" y="-1285.55" font-family="Times,serif" font-size="14.00">Casual</text>
</g>
<!-- 9&#45;&gt;3 -->
<g id="edge11" class="edge">
<title>9&#45;&gt;3</title>
<path fill="none" stroke="black" d="M484.45,-1394.96C679.13,-1423.63 1113.8,-1480.61 1359.08,-1509.94"/>
<polygon fill="black" stroke="black" points="1358.4,-1513.39 1368.75,-1511.1 1359.23,-1506.44 1358.4,-1513.39"/>
<text text-anchor="middle" x="895.51" y="-1456.4" font-family="Times,serif" font-size="14.00">Careful</text>
</g>
<!-- 9&#45;&gt;8 -->
<g id="edge26" class="edge">
<title>9&#45;&gt;8</title>
<path fill="none" stroke="black" d="M397.94,-1396.22C421.12,-1422.68 470.8,-1471.55 504.61,-1501.64"/>
<polygon fill="black" stroke="black" points="502.3,-1504.27 512.13,-1508.23 506.92,-1499 502.3,-1504.27"/>
<text text-anchor="middle" x="425.03" y="-1435.63" font-family="Times,serif" font-size="14.00">Careful</text>
</g>
<!-- 9&#45;&gt;12 -->
<g id="edge38" class="edge">
<title>9&#45;&gt;12</title>
<path fill="none" stroke="black" d="M405.23,-1359.61C544.15,-1221.35 1366.78,-347.27 1513,-182.73"/>
<polygon fill="black" stroke="black" points="1515.57,-185.12 1519.56,-175.3 1510.32,-180.48 1515.57,-185.12"/>
<text text-anchor="middle" x="935.12" y="-775.12" font-family="Times,serif" font-size="14.00">Casual</text>
</g>
<!-- 9&#45;&gt;14 -->
<g id="edge43" class="edge">
<title>9&#45;&gt;14</title>
<path fill="none" stroke="black" d="M383.5,-1359.67C367.91,-1268.84 273.84,-867.12 242.18,-754.8"/>
<polygon fill="black" stroke="black" points="245.62,-754.08 239.48,-745.44 238.89,-756.02 245.62,-754.08"/>
<text text-anchor="middle" x="286.59" y="-1061.18" font-family="Times,serif" font-size="14.00">Careful</text>
</g>
<!-- 9&#45;&gt;19 -->
<g id="edge73" class="edge">
<title>9&#45;&gt;19</title>
<path fill="none" stroke="black" d="M412.02,-1359.82C517.96,-1279.96 907.98,-961.27 1014.3,-867.81"/>
<polygon fill="black" stroke="black" points="1016.56,-870.48 1021.72,-861.23 1011.92,-865.24 1016.56,-870.48"/>
<text text-anchor="middle" x="689.16" y="-1117.76" font-family="Times,serif" font-size="14.00">Casual</text>
</g>
<!-- 10 -->
<g id="node11" class="node">
<title>10</title>
<ellipse fill="none" stroke="black" cx="284.01" cy="-1182.03" rx="234.29" ry="18"/>
<text text-anchor="middle" x="284.01" y="-1177.35" font-family="Times,serif" font-size="14.00">Alisa (Alisa PGP key) &lt;alisa@alisaqaq.moe&gt;</text>
</g>
<!-- 10&#45;&gt;19 -->
<g id="edge64" class="edge">
<title>10&#45;&gt;19</title>
<path fill="none" stroke="black" d="M332.8,-1163.94C471.56,-1106.43 866.76,-928.91 998.14,-865.03"/>
<polygon fill="black" stroke="black" points="999.42,-868.3 1006.86,-860.76 996.34,-862.02 999.42,-868.3"/>
<text text-anchor="middle" x="639.22" y="-1018.44" font-family="Times,serif" font-size="14.00">Default</text>
</g>
<!-- 11 -->
<g id="node12" class="node">
<title>11</title>
<ellipse fill="none" stroke="black" cx="232.19" cy="-958.5" rx="232.19" ry="18"/>
<text text-anchor="middle" x="232.19" y="-953.82" font-family="Times,serif" font-size="14.00">ChaosAttractor &lt;lostattractor@gmail.com&gt;</text>
</g>
<!-- 11&#45;&gt;0 -->
<g id="edge1" class="edge">
<title>11&#45;&gt;0</title>
<path fill="none" stroke="black" d="M464.77,-958.5C785.1,-958.5 1356.38,-958.5 1656.3,-958.5"/>
<polygon fill="black" stroke="black" points="1656.22,-962 1666.22,-958.5 1656.22,-955 1656.22,-962"/>
<text text-anchor="middle" x="1086.79" y="-962.45" font-family="Times,serif" font-size="14.00">Default</text>
</g>
<!-- 11&#45;&gt;19 -->
<g id="edge68" class="edge">
<title>11&#45;&gt;19</title>
<path fill="none" stroke="black" d="M371.55,-943.72C535.95,-922.29 804.8,-883.34 946.67,-860.18"/>
<polygon fill="black" stroke="black" points="947.12,-863.66 956.42,-858.58 945.98,-856.75 947.12,-863.66"/>
<text text-anchor="middle" x="632.86" y="-905.9" font-family="Times,serif" font-size="14.00">Default</text>
</g>
<!-- 12&#45;&gt;1 -->
<g id="edge9" class="edge">
<title>12&#45;&gt;1</title>
<path fill="none" stroke="black" d="M1537.88,-174.36C1562.91,-297.14 1743.12,-1001.03 1788.16,-1153.08"/>
<polygon fill="black" stroke="black" points="1784.72,-1153.81 1790.96,-1162.37 1791.42,-1151.78 1784.72,-1153.81"/>
<text text-anchor="middle" x="1636.77" y="-650.42" font-family="Times,serif" font-size="14.00">Default</text>
</g>
<!-- 12&#45;&gt;3 -->
<g id="edge16" class="edge">
<title>12&#45;&gt;3</title>
<path fill="none" stroke="black" d="M1535.22,-174.42C1535.33,-321.91 1536.14,-1313.06 1536.29,-1498.21"/>
<polygon fill="black" stroke="black" points="1532.79,-1498.16 1536.3,-1508.16 1539.79,-1498.16 1532.79,-1498.16"/>
<text text-anchor="middle" x="1511.75" y="-840.26" font-family="Times,serif" font-size="14.00">Casual</text>
</g>
<!-- 12&#45;&gt;8 -->
<g id="edge24" class="edge">
<title>12&#45;&gt;8</title>
<path fill="none" stroke="black" d="M1521.87,-174.41C1414.35,-322.42 689.27,-1320.48 559,-1499.79"/>
<polygon fill="black" stroke="black" points="556.2,-1497.7 553.15,-1507.85 561.86,-1501.81 556.2,-1497.7"/>
<text text-anchor="middle" x="1066.69" y="-823.8" font-family="Times,serif" font-size="14.00">Default</text>
</g>
<!-- 12&#45;&gt;9 -->
<g id="edge33" class="edge">
<title>12&#45;&gt;9</title>
<path fill="none" stroke="black" d="M1515.31,-174.47C1376.39,-312.73 553.76,-1186.81 407.53,-1351.35"/>
<polygon fill="black" stroke="black" points="404.97,-1348.96 400.98,-1358.77 410.22,-1353.6 404.97,-1348.96"/>
<text text-anchor="middle" x="937.42" y="-749.61" font-family="Times,serif" font-size="14.00">Casual</text>
</g>
<!-- 12&#45;&gt;14 -->
<g id="edge45" class="edge">
<title>12&#45;&gt;14</title>
<path fill="none" stroke="black" d="M1493.69,-174.21C1301.25,-258.31 496.4,-610.06 283.85,-702.95"/>
<polygon fill="black" stroke="black" points="282.45,-699.74 274.69,-706.96 285.26,-706.16 282.45,-699.74"/>
<text text-anchor="middle" x="864.77" y="-425.28" font-family="Times,serif" font-size="14.00">Casual</text>
</g>
<!-- 12&#45;&gt;17 -->
<g id="edge51" class="edge">
<title>12&#45;&gt;17</title>
<path fill="none" stroke="black" d="M1318.59,-150.36C1139.5,-148.84 888.53,-148.98 722.63,-150.78"/>
<polygon fill="black" stroke="black" points="722.8,-147.28 712.84,-150.89 722.88,-154.28 722.8,-147.28"/>
<text text-anchor="middle" x="996.61" y="-137.27" font-family="Times,serif" font-size="14.00">Casual</text>
</g>
<!-- 12&#45;&gt;19 -->
<g id="edge58" class="edge">
<title>12&#45;&gt;19</title>
<path fill="none" stroke="black" d="M1521.99,-174.41C1453.92,-268.91 1142.92,-700.73 1061,-814.46"/>
<polygon fill="black" stroke="black" points="1058.32,-812.19 1055.32,-822.35 1064,-816.29 1058.32,-812.19"/>
<text text-anchor="middle" x="1265.24" y="-498.39" font-family="Times,serif" font-size="14.00">Default</text>
</g>
<!-- 13 -->
<g id="node14" class="node">
<title>13</title>
<ellipse fill="none" stroke="black" cx="1693.23" cy="-306.02" rx="139.59" ry="18"/>
<text text-anchor="middle" x="1693.23" y="-301.34" font-family="Times,serif" font-size="14.00">Clansty Icaria &lt;i@0w.al&gt;</text>
</g>
<!-- 13&#45;&gt;11 -->
<g id="edge35" class="edge">
<title>13&#45;&gt;11</title>
<path fill="none" stroke="black" d="M1653.77,-323.64C1449.5,-414.86 512.75,-833.2 283.12,-935.75"/>
<polygon fill="black" stroke="black" points="281.81,-932.51 274.1,-939.78 284.66,-938.9 281.81,-932.51"/>
<text text-anchor="middle" x="942.19" y="-633.65" font-family="Times,serif" font-size="14.00">Default</text>
</g>
<!-- 13&#45;&gt;14 -->
<g id="edge40" class="edge">
<title>13&#45;&gt;14</title>
<path fill="none" stroke="black" d="M1635.05,-322.72C1404.56,-388.9 555.74,-632.63 303.39,-705.09"/>
<polygon fill="black" stroke="black" points="302.64,-701.66 293.99,-707.78 304.57,-708.39 302.64,-701.66"/>
<text text-anchor="middle" x="942.97" y="-517.85" font-family="Times,serif" font-size="14.00">Default</text>
</g>
<!-- 15 -->
<g id="node16" class="node">
<title>15</title>
<ellipse fill="none" stroke="black" cx="286.58" cy="-502" rx="280.07" ry="18"/>
<text text-anchor="middle" x="286.58" y="-497.33" font-family="Times,serif" font-size="14.00">ACh Sulfate (For personal use only.) &lt;dex@libart.so&gt;</text>
</g>
<!-- 13&#45;&gt;15 -->
<g id="edge46" class="edge">
<title>13&#45;&gt;15</title>
<path fill="none" stroke="black" d="M1597.1,-319.41C1351.02,-353.7 698.05,-444.67 417.59,-483.75"/>
<polygon fill="black" stroke="black" points="417.47,-480.23 408.05,-485.08 418.44,-487.16 417.47,-480.23"/>
<text text-anchor="middle" x="981.09" y="-405.53" font-family="Times,serif" font-size="14.00">Default</text>
</g>
<!-- 13&#45;&gt;19 -->
<g id="edge67" class="edge">
<title>13&#45;&gt;19</title>
<path fill="none" stroke="black" d="M1671.16,-324.16C1574.11,-403.93 1185.11,-723.68 1072.11,-816.57"/>
<polygon fill="black" stroke="black" points="1069.91,-813.84 1064.41,-822.89 1074.36,-819.24 1069.91,-813.84"/>
<text text-anchor="middle" x="1345.38" y="-574.31" font-family="Times,serif" font-size="14.00">Default</text>
</g>
<!-- 20 -->
<g id="node21" class="node">
<title>20</title>
<ellipse fill="none" stroke="black" cx="736.69" cy="-62" rx="179.58" ry="18"/>
<text text-anchor="middle" x="736.69" y="-57.33" font-family="Times,serif" font-size="14.00">RainbowBird &lt;me@luoling.moe&gt;</text>
</g>
<!-- 13&#45;&gt;20 -->
<g id="edge76" class="edge">
<title>13&#45;&gt;20</title>
<path fill="none" stroke="black" d="M1628.98,-289.63C1459.24,-246.33 999.26,-128.99 814.78,-81.93"/>
<polygon fill="black" stroke="black" points="815.85,-78.59 805.29,-79.5 814.12,-85.37 815.85,-78.59"/>
<text text-anchor="middle" x="1195.63" y="-189.73" font-family="Times,serif" font-size="14.00">Default</text>
</g>
<!-- 14&#45;&gt;1 -->
<g id="edge7" class="edge">
<title>14&#45;&gt;1</title>
<path fill="none" stroke="black" d="M283.11,-743.1C510.75,-815 1436.18,-1084.97 1716.96,-1161.7"/>
<polygon fill="black" stroke="black" points="1715.84,-1165.02 1726.41,-1164.27 1717.68,-1158.27 1715.84,-1165.02"/>
<text text-anchor="middle" x="973.79" y="-939.1" font-family="Times,serif" font-size="14.00">Default</text>
</g>
<!-- 14&#45;&gt;8 -->
<g id="edge25" class="edge">
<title>14&#45;&gt;8</title>
<path fill="none" stroke="black" d="M236.86,-743.8C270.55,-848.39 470.25,-1370.87 525.18,-1498.97"/>
<polygon fill="black" stroke="black" points="521.8,-1499.99 529,-1507.76 528.22,-1497.2 521.8,-1499.99"/>
<text text-anchor="middle" x="354.77" y="-1108.09" font-family="Times,serif" font-size="14.00">Default</text>
</g>
<!-- 14&#45;&gt;9 -->
<g id="edge32" class="edge">
<title>14&#45;&gt;9</title>
<path fill="none" stroke="black" d="M234.03,-743.87C249.62,-834.7 343.69,-1236.42 375.35,-1348.75"/>
<polygon fill="black" stroke="black" points="371.91,-1349.47 378.05,-1358.1 378.64,-1347.53 371.91,-1349.47"/>
<text text-anchor="middle" x="278.44" y="-1033.01" font-family="Times,serif" font-size="14.00">Careful</text>
</g>
<!-- 14&#45;&gt;19 -->
<g id="edge74" class="edge">
<title>14&#45;&gt;19</title>
<path fill="none" stroke="black" d="M315.11,-741.82C453.97,-764.76 734.89,-805.5 903.7,-827.46"/>
<polygon fill="black" stroke="black" points="903.03,-830.9 913.4,-828.72 903.93,-823.96 903.03,-830.9"/>
<text text-anchor="middle" x="585.4" y="-788.59" font-family="Times,serif" font-size="14.00">Casual</text>
</g>
<!-- 15&#45;&gt;19 -->
<g id="edge71" class="edge">
<title>15&#45;&gt;19</title>
<path fill="none" stroke="black" d="M319.72,-520.26C436.97,-578.23 832.99,-756.93 982.97,-819.9"/>
<polygon fill="black" stroke="black" points="981.37,-823.02 991.94,-823.64 984.07,-816.56 981.37,-823.02"/>
<text text-anchor="middle" x="625.1" y="-674.03" font-family="Times,serif" font-size="14.00">Default</text>
</g>
<!-- 16 -->
<g id="node17" class="node">
<title>16</title>
<ellipse fill="none" stroke="black" cx="391.47" cy="-306.02" rx="352.67" ry="18"/>
<text text-anchor="middle" x="391.47" y="-301.34" font-family="Times,serif" font-size="14.00">Next Alone (For gpg sign on Arch Linux.) &lt;i.nextalone@gmail.com&gt;</text>
</g>
<!-- 16&#45;&gt;19 -->
<g id="edge69" class="edge">
<title>16&#45;&gt;19</title>
<path fill="none" stroke="black" d="M409.67,-324.3C498.46,-404.55 886.28,-724.76 1005.93,-817.04"/>
<polygon fill="black" stroke="black" points="1003.46,-819.56 1013.53,-822.86 1007.72,-814 1003.46,-819.56"/>
<text text-anchor="middle" x="681.55" y="-574.62" font-family="Times,serif" font-size="14.00">Default</text>
</g>
<!-- 17&#45;&gt;1 -->
<g id="edge5" class="edge">
<title>17&#45;&gt;1</title>
<path fill="none" stroke="black" d="M568.45,-174.05C708.18,-297.06 1578.71,-1012.58 1763.63,-1156.75"/>
<polygon fill="black" stroke="black" points="1761.41,-1159.46 1771.45,-1162.82 1765.7,-1153.93 1761.41,-1159.46"/>
<text text-anchor="middle" x="1139.79" y="-652.1" font-family="Times,serif" font-size="14.00">Careful</text>
</g>
<!-- 17&#45;&gt;3 -->
<g id="edge15" class="edge">
<title>17&#45;&gt;3</title>
<path fill="none" stroke="black" d="M562.73,-174.42C669.24,-322.5 1387.44,-1320.99 1516.48,-1500.39"/>
<polygon fill="black" stroke="black" points="1513.59,-1502.37 1522.27,-1508.44 1519.28,-1498.28 1513.59,-1502.37"/>
<text text-anchor="middle" x="1013.36" y="-824.1" font-family="Times,serif" font-size="14.00">Default</text>
</g>
<!-- 17&#45;&gt;8 -->
<g id="edge22" class="edge">
<title>17&#45;&gt;8</title>
<path fill="none" stroke="black" d="M549.39,-174.41C548.25,-321.83 540.63,-1312.55 539.21,-1497.61"/>
<polygon fill="black" stroke="black" points="535.71,-1497.53 539.13,-1507.56 542.71,-1497.59 535.71,-1497.53"/>
<text text-anchor="middle" x="518.05" y="-839.96" font-family="Times,serif" font-size="14.00">Default</text>
</g>
<!-- 17&#45;&gt;9 -->
<g id="edge29" class="edge">
<title>17&#45;&gt;9</title>
<path fill="none" stroke="black" d="M547.08,-174.29C528.7,-311.07 412.44,-1176.32 389.33,-1348.31"/>
<polygon fill="black" stroke="black" points="385.87,-1347.81 388,-1358.19 392.8,-1348.74 385.87,-1347.81"/>
<text text-anchor="middle" x="441.96" y="-765.25" font-family="Times,serif" font-size="14.00">Default</text>
</g>
<!-- 17&#45;&gt;12 -->
<g id="edge37" class="edge">
<title>17&#45;&gt;12</title>
<path fill="none" stroke="black" d="M711.19,-161.22C873.41,-163.11 1124.74,-163.32 1307.19,-161.86"/>
<polygon fill="black" stroke="black" points="1307.08,-165.36 1317.05,-161.78 1307.02,-158.36 1307.08,-165.36"/>
<text text-anchor="middle" x="985.19" y="-165.49" font-family="Times,serif" font-size="14.00">Casual</text>
</g>
<!-- 17&#45;&gt;19 -->
<g id="edge56" class="edge">
<title>17&#45;&gt;19</title>
<path fill="none" stroke="black" d="M559.82,-174.36C620.6,-268.99 931,-702.39 1018.36,-815.14"/>
<polygon fill="black" stroke="black" points="1015.34,-816.96 1024.25,-822.68 1020.85,-812.65 1015.34,-816.96"/>
<text text-anchor="middle" x="762.84" y="-498.7" font-family="Times,serif" font-size="14.00">Default</text>
</g>
<!-- 18&#45;&gt;19 -->
<g id="edge60" class="edge">
<title>18&#45;&gt;19</title>
<path fill="none" stroke="black" d="M1757.15,-520.4C1628.46,-578.2 1232.5,-756.05 1091.6,-819.34"/>
<polygon fill="black" stroke="black" points="1090.18,-816.14 1082.5,-823.43 1093.05,-822.52 1090.18,-816.14"/>
<text text-anchor="middle" x="1398.13" y="-673.82" font-family="Times,serif" font-size="14.00">Default</text>
</g>
<!-- 19&#45;&gt;0 -->
<g id="edge2" class="edge">
<title>19&#45;&gt;0</title>
<path fill="none" stroke="black" d="M1124.72,-858.34C1263.66,-881.23 1543.67,-921.75 1712.98,-943.75"/>
<polygon fill="black" stroke="black" points="1712.35,-947.2 1722.72,-945.01 1713.25,-940.25 1712.35,-947.2"/>
<text text-anchor="middle" x="1392.6" y="-904.99" font-family="Times,serif" font-size="14.00">Careful</text>
</g>
<!-- 19&#45;&gt;1 -->
<g id="edge3" class="edge">
<title>19&#45;&gt;1</title>
<path fill="none" stroke="black" d="M1073.94,-860C1190.77,-917.65 1587.94,-1096.36 1739.08,-1159.66"/>
<polygon fill="black" stroke="black" points="1737.56,-1162.82 1748.14,-1163.44 1740.25,-1156.36 1737.56,-1162.82"/>
<text text-anchor="middle" x="1380.26" y="-996.53" font-family="Times,serif" font-size="14.00">Default</text>
</g>
<!-- 19&#45;&gt;2 -->
<g id="edge10" class="edge">
<title>19&#45;&gt;2</title>
<path fill="none" stroke="black" d="M1059.49,-860.27C1148.81,-940.54 1538.77,-1260.79 1659.06,-1353.07"/>
<polygon fill="black" stroke="black" points="1656.63,-1355.62 1666.7,-1358.9 1660.87,-1350.05 1656.63,-1355.62"/>
<text text-anchor="middle" x="1333.02" y="-1093.37" font-family="Times,serif" font-size="14.00">Default</text>
</g>
<!-- 19&#45;&gt;3 -->
<g id="edge13" class="edge">
<title>19&#45;&gt;3</title>
<path fill="none" stroke="black" d="M1051.56,-860.29C1112.75,-954.84 1424.73,-1387.43 1513.06,-1500.75"/>
<polygon fill="black" stroke="black" points="1510.1,-1502.65 1519.03,-1508.35 1515.6,-1498.32 1510.1,-1502.65"/>
<text text-anchor="middle" x="1256.06" y="-1167.22" font-family="Times,serif" font-size="14.00">Default</text>
</g>
<!-- 19&#45;&gt;5 -->
<g id="edge17" class="edge">
<title>19&#45;&gt;5</title>
<path fill="none" stroke="black" d="M1046.05,-860.19C1080.38,-962.7 1280.34,-1467.53 1336.33,-1593.91"/>
<polygon fill="black" stroke="black" points="1333.09,-1595.23 1340.38,-1602.92 1339.47,-1592.36 1333.09,-1595.23"/>
<text text-anchor="middle" x="1164.94" y="-1213.75" font-family="Times,serif" font-size="14.00">Default</text>
</g>
<!-- 19&#45;&gt;6 -->
<g id="edge18" class="edge">
<title>19&#45;&gt;6</title>
<path fill="none" stroke="black" d="M1039.07,-860.38C1033.62,-966.87 1035.68,-1504.37 1041.78,-1637.03"/>
<polygon fill="black" stroke="black" points="1038.27,-1636.93 1042.28,-1646.74 1045.26,-1636.57 1038.27,-1636.93"/>
<text text-anchor="middle" x="1014.18" y="-1235.4" font-family="Times,serif" font-size="14.00">Default</text>
</g>
<!-- 19&#45;&gt;7 -->
<g id="edge19" class="edge">
<title>19&#45;&gt;7</title>
<path fill="none" stroke="black" d="M1031.16,-860.35C983.12,-962.21 779.48,-1457.7 731.62,-1588.45"/>
<polygon fill="black" stroke="black" points="728.33,-1587.25 728.24,-1597.84 734.92,-1589.62 728.33,-1587.25"/>
<text text-anchor="middle" x="855.14" y="-1211.1" font-family="Times,serif" font-size="14.00">Careful</text>
</g>
<!-- 19&#45;&gt;8 -->
<g id="edge21" class="edge">
<title>19&#45;&gt;8</title>
<path fill="none" stroke="black" d="M1024.7,-860.3C948.61,-954.67 632.85,-1385.41 555.88,-1499.56"/>
<polygon fill="black" stroke="black" points="553.05,-1497.49 550.41,-1507.75 558.87,-1501.37 553.05,-1497.49"/>
<text text-anchor="middle" x="764.04" y="-1166.63" font-family="Times,serif" font-size="14.00">Careful</text>
</g>
<!-- 19&#45;&gt;9 -->
<g id="edge31" class="edge">
<title>19&#45;&gt;9</title>
<path fill="none" stroke="black" d="M1014.5,-860.18C908.55,-940.04 518.54,-1258.72 412.22,-1352.19"/>
<polygon fill="black" stroke="black" points="409.96,-1349.52 404.8,-1358.77 414.6,-1354.76 409.96,-1349.52"/>
<text text-anchor="middle" x="687.11" y="-1092.89" font-family="Times,serif" font-size="14.00">Careful</text>
</g>
<!-- 19&#45;&gt;10 -->
<g id="edge34" class="edge">
<title>19&#45;&gt;10</title>
<path fill="none" stroke="black" d="M993.25,-859.72C855.33,-916.82 458.99,-1094.84 327.19,-1158.91"/>
<polygon fill="black" stroke="black" points="325.88,-1155.66 318.44,-1163.2 328.96,-1161.94 325.88,-1155.66"/>
<text text-anchor="middle" x="633.97" y="-996.01" font-family="Times,serif" font-size="14.00">Default</text>
</g>
<!-- 19&#45;&gt;11 -->
<g id="edge36" class="edge">
<title>19&#45;&gt;11</title>
<path fill="none" stroke="black" d="M914.94,-855.07C753.7,-875.86 477.98,-915.71 331.1,-939.58"/>
<polygon fill="black" stroke="black" points="330.69,-936.11 321.38,-941.17 331.82,-943.01 330.69,-936.11"/>
<text text-anchor="middle" x="596.77" y="-884.02" font-family="Times,serif" font-size="14.00">Default</text>
</g>
<!-- 19&#45;&gt;14 -->
<g id="edge41" class="edge">
<title>19&#45;&gt;14</title>
<path fill="none" stroke="black" d="M957.89,-825.64C818.66,-802.64 537.36,-761.85 368.81,-739.95"/>
<polygon fill="black" stroke="black" points="369.49,-736.5 359.12,-738.69 368.59,-743.45 369.49,-736.5"/>
<text text-anchor="middle" x="637.1" y="-786.74" font-family="Times,serif" font-size="14.00">Careful</text>
</g>
<!-- 19&#45;&gt;15 -->
<g id="edge47" class="edge">
<title>19&#45;&gt;15</title>
<path fill="none" stroke="black" d="M1008.53,-823.97C892.14,-766.37 496.6,-587.87 345.71,-524.48"/>
<polygon fill="black" stroke="black" points="347.25,-521.33 336.67,-520.7 344.55,-527.78 347.25,-521.33"/>
<text text-anchor="middle" x="703.37" y="-678.17" font-family="Times,serif" font-size="14.00">Default</text>
</g>
<!-- 19&#45;&gt;16 -->
<g id="edge48" class="edge">
<title>19&#45;&gt;16</title>
<path fill="none" stroke="black" d="M1022.99,-823.7C934.19,-743.45 546.38,-423.24 426.72,-330.96"/>
<polygon fill="black" stroke="black" points="429.2,-328.44 419.13,-325.14 424.94,-334 429.2,-328.44"/>
<text text-anchor="middle" x="751.11" y="-581.28" font-family="Times,serif" font-size="14.00">Default</text>
</g>
<!-- 19&#45;&gt;17 -->
<g id="edge50" class="edge">
<title>19&#45;&gt;17</title>
<path fill="none" stroke="black" d="M1030.89,-823.69C970.1,-729.06 659.71,-295.66 572.35,-182.91"/>
<polygon fill="black" stroke="black" points="575.37,-181.09 566.46,-175.37 569.86,-185.4 575.37,-181.09"/>
<text text-anchor="middle" x="827.87" y="-507.25" font-family="Times,serif" font-size="14.00">Default</text>
</g>
<!-- 19&#45;&gt;20 -->
<g id="edge75" class="edge">
<title>19&#45;&gt;20</title>
<path fill="none" stroke="black" d="M1036.43,-823.81C1002.76,-721.41 806.07,-217 750.9,-90.71"/>
<polygon fill="black" stroke="black" points="754.16,-89.43 746.91,-81.71 747.76,-92.27 754.16,-89.43"/>
<text text-anchor="middle" x="867.41" y="-461.21" font-family="Times,serif" font-size="14.00">Default</text>
</g>
<!-- 22 -->
<g id="node23" class="node">
<title>22</title>
<ellipse fill="none" stroke="black" cx="1042.43" cy="-18" rx="152.22" ry="18"/>
<text text-anchor="middle" x="1042.43" y="-13.32" font-family="Times,serif" font-size="14.00">Dr. Dai Yang &lt;hi@dai.moe&gt;</text>
</g>
<!-- 19&#45;&gt;22 -->
<g id="edge77" class="edge">
<title>19&#45;&gt;22</title>
<path fill="none" stroke="black" d="M1043.39,-823.62C1049.46,-717.25 1050.45,-180.2 1045.11,-47.62"/>
<polygon fill="black" stroke="black" points="1048.62,-47.75 1044.66,-37.92 1041.63,-48.08 1048.62,-47.75"/>
<text text-anchor="middle" x="1018" y="-439.57" font-family="Times,serif" font-size="14.00">Default</text>
</g>
<!-- 20&#45;&gt;19 -->
<g id="edge66" class="edge">
<title>20&#45;&gt;19</title>
<path fill="none" stroke="black" d="M741.44,-80.18C775.11,-182.58 971.8,-686.99 1026.97,-813.28"/>
<polygon fill="black" stroke="black" points="1023.71,-814.56 1030.96,-822.28 1030.11,-811.72 1023.71,-814.56"/>
<text text-anchor="middle" x="910.46" y="-433.43" font-family="Times,serif" font-size="14.00">Default</text>
</g>
<!-- 21 -->
<g id="node22" class="node">
<title>21</title>
<ellipse fill="none" stroke="black" cx="1852.51" cy="-725.53" rx="214.83" ry="18"/>
<text text-anchor="middle" x="1852.51" y="-720.86" font-family="Times,serif" font-size="14.00">Catherina Grace &lt;zzt2930@gmail.com&gt;</text>
</g>
<!-- 21&#45;&gt;19 -->
<g id="edge65" class="edge">
<title>21&#45;&gt;19</title>
<path fill="none" stroke="black" d="M1742.25,-741.36C1588.97,-763.36 1312.82,-803 1156.76,-825.4"/>
<polygon fill="black" stroke="black" points="1156.64,-821.88 1147.23,-826.76 1157.63,-828.81 1156.64,-821.88"/>
<text text-anchor="middle" x="1423.25" y="-787.33" font-family="Times,serif" font-size="14.00">Default</text>
</g>
<!-- 22&#45;&gt;19 -->
<g id="edge70" class="edge">
<title>22&#45;&gt;19</title>
<path fill="none" stroke="black" d="M1040.22,-36.36C1034.16,-142.74 1033.16,-679.78 1038.5,-812.36"/>
<polygon fill="black" stroke="black" points="1034.99,-812.23 1038.95,-822.06 1041.98,-811.91 1034.99,-812.23"/>
<text text-anchor="middle" x="1065.61" y="-411.06" font-family="Times,serif" font-size="14.00">Default</text>
</g>
</g>
</svg>
